<svg xmlns="http://www.w3.org/2000/svg" viewBox="0 0 256 256" role="img" aria-labelledby="title desc">
  <title id="title">TurboCell Atlas icon</title>
  <desc id="desc">A Python-package style rounded-square icon with layered cell rings and an atlas grid.</desc>
  <defs>
    <linearGradient id="shell" x1="0%" x2="100%" y1="0%" y2="100%">
      <stop offset="0%" stop-color="#0f6c63"/>
      <stop offset="100%" stop-color="#1f8a70"/>
    </linearGradient>
    <linearGradient id="accent" x1="0%" x2="100%" y1="0%" y2="100%">
      <stop offset="0%" stop-color="#f6d6a8"/>
      <stop offset="100%" stop-color="#b65a2a"/>
    </linearGradient>
  </defs>
  <rect width="256" height="256" rx="56" fill="#f7f4ed"/>
  <rect x="26" y="26" width="204" height="204" rx="44" fill="url(#shell)"/>
  <rect x="46" y="46" width="164" height="164" rx="34" fill="#f7f4ed" opacity=".95"/>
  <circle cx="108" cy="108" r="38" fill="none" stroke="#0f6c63" stroke-width="12"/>
  <circle cx="108" cy="108" r="16" fill="#0f6c63"/>
  <path d="M150 84h24M150 108h24M150 132h24M150 156h24" stroke="#0f6c63" stroke-linecap="round" stroke-width="10"/>
  <path d="M148 84c20 0 36 16 36 36" fill="none" stroke="url(#accent)" stroke-linecap="round" stroke-width="14"/>
  <circle cx="184" cy="120" r="16" fill="url(#accent)"/>
  <path d="M82 166h88" stroke="#0f6c63" stroke-linecap="round" stroke-width="12"/>
  <circle cx="96" cy="166" r="9" fill="#0f6c63"/>
  <circle cx="126" cy="166" r="9" fill="#0f6c63" opacity=".72"/>
  <circle cx="156" cy="166" r="9" fill="#0f6c63" opacity=".46"/>
</svg>
